<svg height="451pt" viewBox="0 0 451.84 451" width="451pt" xmlns="http://www.w3.org/2000/svg"><path d="m445.839844 399.441406v17.617188c-.003906 15.253906-12.367188 27.617187-27.621094 27.621094h-82.867188c-15.257812.003906-27.628906-12.363282-27.632812-27.621094v-17.617188zm0 0" fill="#f8ec7d"/><path d="m445.839844 362.378906v37.0625h-138.121094v-170.910156h138.121094zm-34.058594-73.089844c0-19.328124-15.671875-35-35-35-19.332031 0-35 15.671876-35 35 0 19.332032 15.667969 35 35 35 19.328125 0 35-15.667968 35-35zm-37.8125 73.089844c0-6.625-5.371094-12-12-12-6.625 0-12 5.375-12 12 0 6.628906 5.375 12 12 12 6.628906 0 12-5.371094 12-12zm0 0" fill="#e48e66"/><path d="m445.839844 223.699219v4.832031h-138.121094v-4.832031c0-15.257813 12.371094-27.628907 27.632812-27.628907h82.867188c15.257812.003907 27.621094 12.375 27.621094 27.628907zm0 0" fill="#f8ec7d"/><path d="m376.78125 254.289062c19.328125 0 35 15.671876 35 35 0 19.332032-15.671875 35-35 35-19.332031 0-35-15.667968-35-35 0-19.328124 15.667969-35 35-35zm-6.121094 49.53125 21-14.53125-21-14.519531zm0 0" fill="#6fe3ff"/><path d="m391.660156 289.289062-21 14.53125v-29.050781zm0 0" fill="#6fe3ff"/><path d="m154.671875 185.859375c0-8.945313-7.253906-16.199219-16.203125-16.199219-8.945312 0-16.199219 7.253906-16.199219 16.199219 0 8.949219 7.253907 16.199219 16.199219 16.199219 8.949219 0 16.203125-7.25 16.203125-16.199219zm226.058594-143.210937v153.421874h-45.378907c-15.261718 0-27.632812 12.371094-27.632812 27.628907v8.210937h-301.71875v-189.261718c0-20.007813 16.21875-36.230469 36.230469-36.226563h302.257812c20.011719-.003906 36.238281 16.214844 36.242188 36.226563zm-144.25 55.101562c0-23.859375-19.339844-43.199219-43.199219-43.199219s-43.203125 19.339844-43.203125 43.199219 19.34375 43.199219 43.203125 43.199219 43.199219-19.339844 43.199219-43.199219zm0 0" fill="#e48e66"/><path d="m373.96875 362.378906c0 6.628906-5.371094 12-12 12-6.625 0-12-5.371094-12-12 0-6.625 5.375-12 12-12 6.628906 0 12 5.375 12 12zm0 0" fill="#6fe3ff"/><path d="m307.71875 275.03125v25.117188h-265.488281c-20.011719-.003907-36.230469-16.226563-36.230469-36.238282v-32h301.71875zm0 0" fill="#cc7350"/><path d="m193.28125 54.550781c23.859375 0 43.199219 19.339844 43.199219 43.199219s-19.339844 43.199219-43.199219 43.199219-43.203125-19.339844-43.203125-43.199219 19.34375-43.199219 43.203125-43.199219zm-7.5625 61.128907 25.921875-17.929688-25.921875-17.921875zm0 0" fill="#f8ec7d"/><path d="m211.640625 97.75-25.921875 17.929688v-35.851563zm0 0" fill="#6fe3ff"/><path d="m154.671875 185.859375c0 8.949219-7.253906 16.199219-16.203125 16.199219-8.945312 0-16.199219-7.25-16.199219-16.199219 0-8.945313 7.253907-16.199219 16.199219-16.199219 8.949219 0 16.203125 7.253906 16.203125 16.199219zm0 0" fill="#f8ec7d"/><g fill="#63316d"><path d="m418.21875 190.070312h-31.488281v-147.421874c-.03125-23.3125-18.925781-42.203126-42.242188-42.226563h-302.257812c-23.3125.023437-42.2031252 18.914063-42.230469 42.226563v221.261718c.0234375 23.316406 18.914062 42.210938 42.230469 42.238282h145.128906v65.679687h-68.847656c-3.316407 0-6 2.6875-6 6 0 3.316406 2.683593 6 6 6h154.039062c3.3125 0 6-2.683594 6-6 0-3.3125-2.6875-6-6-6h-73.191406v-65.679687h102.359375v110.910156c.023438 18.5625 15.070312 33.601562 33.632812 33.621094h82.867188c18.558594-.019532 33.601562-15.0625 33.621094-33.621094v-193.359375c-.019532-18.5625-15.058594-33.605469-33.621094-33.628907zm0 12c11.484375.015626 20.957031 8.996094 21.589844 20.460938h-126.054688c.632813-11.46875 10.113282-20.449219 21.597656-20.460938zm-116.5 92.078126h-259.488281c-16.691407-.019532-30.214844-13.546876-30.230469-30.238282v-26h289.71875zm0-70.449219v2.210937h-289.71875v-183.261718c.019531-16.6875 13.542969-30.210938 30.230469-30.226563h302.257812c16.691407.015625 30.21875 13.539063 30.242188 30.226563v147.421874h-39.378907c-18.566406.019532-33.609374 15.066407-33.632812 33.628907zm138.121094 193.359375c-.011719 11.9375-9.683594 21.609375-21.621094 21.621094h-82.867188c-11.9375-.011719-21.613281-9.683594-21.632812-21.621094v-11.617188h126.121094zm0-23.617188h-126.121094v-25.0625h31.300781c2.535157 7.191406 9.328125 12 16.949219 12 7.625 0 14.417969-4.808594 16.953125-12h60.917969zm-83.871094-31.0625c0-3.3125 2.6875-6 6-6 3.316406 0 6 2.6875 6 6 0 3.316406-2.683594 6-6 6-3.3125-.003906-5.996094-2.6875-6-6zm83.871094-6h-60.917969c-2.535156-7.1875-9.328125-12-16.953125-12-7.621094 0-14.414062 4.8125-16.949219 12h-31.300781v-121.847656h126.121094zm0 0"/><path d="m364.011719 428.058594h25.546875c3.316406 0 6-2.683594 6-6 0-3.3125-2.683594-6-6-6h-25.546875c-3.316407 0-6 2.6875-6 6 0 3.316406 2.683593 6 6 6zm0 0"/><path d="m296.660156 179.859375h-136.820312c-2.6875-9.578125-11.421875-16.199219-21.371094-16.199219s-18.679688 6.621094-21.367188 16.199219h-27.203124c-3.3125 0-6 2.6875-6 6s2.6875 6 6 6h27.203124c2.6875 9.578125 11.417969 16.199219 21.367188 16.199219s18.683594-6.621094 21.371094-16.199219h136.820312c3.3125 0 6-2.6875 6-6s-2.6875-6-6-6zm-158.191406 16.199219c-5.632812 0-10.199219-4.566406-10.199219-10.199219s4.566407-10.199219 10.199219-10.199219 10.203125 4.566406 10.203125 10.199219c-.007813 5.632813-4.570313 10.195313-10.203125 10.199219zm0 0"/><path d="m182.933594 120.992188c1.976562 1.039062 4.363281.890624 6.199218-.378907l25.921876-17.929687c1.621093-1.117188 2.585937-2.964844 2.585937-4.933594s-.964844-3.816406-2.585937-4.933594l-25.921876-17.921875c-1.835937-1.269531-4.222656-1.414062-6.199218-.378906-1.972656 1.035156-3.210938 3.082031-3.210938 5.3125v35.851563c0 2.230468 1.234375 4.277343 3.210938 5.3125zm8.785156-29.71875 9.371094 6.480468-9.371094 6.480469zm0 0"/><path d="m193.28125 146.949219c27.171875 0 49.199219-22.027344 49.199219-49.199219s-22.027344-49.199219-49.199219-49.199219-49.203125 22.027344-49.203125 49.199219c.03125 27.160156 22.042969 49.167969 49.203125 49.199219zm0-86.398438c20.542969 0 37.199219 16.652344 37.199219 37.199219s-16.65625 37.199219-37.199219 37.199219c-20.546875 0-37.203125-16.652344-37.203125-37.199219.023437-20.535156 16.667969-37.175781 37.203125-37.199219zm0 0"/><path d="m367.875 309.132812c1.976562 1.039063 4.363281.890626 6.199219-.378906l21-14.53125c1.621093-1.121094 2.585937-2.964844 2.585937-4.933594s-.964844-3.8125-2.585937-4.933593l-21-14.519531c-1.835938-1.269532-4.222657-1.414063-6.199219-.378907-1.972656 1.035157-3.210938 3.082031-3.210938 5.3125v29.050781c0 2.230469 1.234376 4.277344 3.210938 5.3125zm8.785156-22.917968 4.453125 3.078125-4.453125 3.078125zm0 0"/><path d="m376.78125 330.289062c22.640625 0 41-18.355468 41-41 0-22.644531-18.359375-41-41-41-22.644531 0-41 18.355469-41 41 .023438 22.632813 18.367188 40.976563 41 41zm0-70c16.015625 0 29 12.984376 29 29 0 16.015626-12.984375 29-29 29s-29-12.984374-29-29c.015625-16.007812 12.988281-28.980468 29-29zm0 0"/></g></svg>