<?xml version="1.0" encoding="iso-8859-1"?>
<!-- Generator: Adobe Illustrator 19.0.0, SVG Export Plug-In . SVG Version: 6.00 Build 0)  -->
<svg version="1.1" id="Capa_1" xmlns="http://www.w3.org/2000/svg" xmlns:xlink="http://www.w3.org/1999/xlink" x="0px" y="0px"
	 viewBox="0 0 512 512" style="enable-background:new 0 0 512 512;" xml:space="preserve">
<g>
	<path style="fill:#455A64;" d="M384,316V96c0-18-14-32-32-32h-32V16c0-8.8-7.2-16-16-16h-96c-8.8,0-16,7.2-16,16v48h-32
		c-7.7,0-14.7,2.7-20.2,7.2L384,316z"/>
	<path style="fill:#455A64;" d="M128,128.6V480c0,18,14,32,32,32h192c18,0,32-14,32-32v-96.1L128,128.6z"/>
</g>
<path style="fill:#F44336;" d="M496,512c-4.1,0-8.2-1.6-11.3-4.7l-480-480c-6.2-6.2-6.2-16.4,0-22.6s16.4-6.2,22.6,0l480,480
	c6.2,6.2,6.2,16.4,0,22.6C504.2,510.4,500.1,512,496,512z"/>
<g>
</g>
<g>
</g>
<g>
</g>
<g>
</g>
<g>
</g>
<g>
</g>
<g>
</g>
<g>
</g>
<g>
</g>
<g>
</g>
<g>
</g>
<g>
</g>
<g>
</g>
<g>
</g>
<g>
</g>
</svg>
