<?xml version="1.0" encoding="iso-8859-1"?>
<!-- Generator: Adobe Illustrator 19.0.0, SVG Export Plug-In . SVG Version: 6.00 Build 0)  -->
<svg version="1.1" id="Capa_1" xmlns="http://www.w3.org/2000/svg" xmlns:xlink="http://www.w3.org/1999/xlink" x="0px" y="0px"
	 viewBox="0 0 512 512" style="enable-background:new 0 0 512 512;" xml:space="preserve">
<path style="fill:#FFE13C;" d="M512,256c0,141.385-114.614,256-255.997,256c-99.626,0-185.955-56.914-228.261-140H138.21
	c10.723,0,19.415-8.693,19.415-19.415V78.943c-12.926-13.665-27.4-25.842-43.118-36.298C155.043,15.708,203.686,0,256.003,0
	C397.386,0,512,114.615,512,256z"/>
<path style="fill:#733C82;" d="M506.275,310c-24.792,115.449-127.416,202-250.272,202c-95.589,0-178.931-52.396-222.893-130.033
	C14.912,349.829,38.34,310,75.272,310H506.275z"/>
<path style="fill:#A5CDFA;" d="M442.001,80.116V362c0,11.046-8.954,20-20,20H33.127c-5.455-9.628-10.299-19.647-14.491-30h11.371
	c2.761,0,5-2.239,5-5L90.006,75c0-2.761-2.239-5-5-5h-4.88c11.804-11.165,24.666-21.225,38.427-30h274.9
	C411.255,51.352,427.556,64.846,442.001,80.116z"/>
<path style="fill:#E1FFFA;" d="M402.001,75v272c0,2.761-2.239,5-5,5H18.634C6.632,322.352,0.007,289.952,0.007,256
	c0-73.266,30.784-139.335,80.115-186h316.88C399.763,70,402.001,72.239,402.001,75z"/>
<path style="fill:#91B9FF;" d="M442.001,166v90c-11.046,0-20-8.954-20-20v-50C422.001,174.954,430.955,166,442.001,166z"/>
<path style="fill:#9BF5F0;" d="M370.002,255v10c0,2.761-2.239,5-5,5h-89.999c-2.761,0-5-2.239-5-5v-10c0-2.761,2.239-5,5-5h89.999
	C367.763,250,370.002,252.239,370.002,255z M365.002,280h-89.999c-2.761,0-5,2.239-5,5v10c0,2.761,2.239,5,5,5h89.999
	c2.761,0,5-2.239,5-5v-10C370.002,282.239,367.763,280,365.002,280z M365.002,310h-89.999c-2.761,0-5,2.239-5,5v10
	c0,2.761,2.239,5,5,5h89.999c2.761,0,5-2.239,5-5v-10C370.002,312.239,367.763,310,365.002,310z M115.005,250H25.007
	c-2.761,0-5,2.239-5,5v10c0,2.761,2.239,5,5,5h89.999c2.761,0,5-2.239,5-5v-10C120.005,252.239,117.767,250,115.005,250z
	 M245.004,250h-89.999c-2.761,0-5,2.239-5,5v10c0,2.761,2.239,5,5,5h89.999c2.761,0,5-2.239,5-5v-10
	C250.004,252.239,247.765,250,245.004,250z M115.005,280H25.007c-2.761,0-5,2.239-5,5v10c0,2.761,2.239,5,5,5h89.999
	c2.761,0,5-2.239,5-5v-10C120.005,282.239,117.767,280,115.005,280z M115.005,310H25.007c-2.761,0-5,2.239-5,5v10
	c0,2.761,2.239,5,5,5h89.999c2.761,0,5-2.239,5-5v-10C120.005,312.239,117.767,310,115.005,310z"/>
<path style="fill:#FF4B6E;" d="M370.002,105v120c0,2.761-2.239,5-5,5H1.313c4.907-48.648,23.446-93.265,51.722-130h311.967
	C367.763,100,370.002,102.239,370.002,105z"/>
<path style="fill:#DC325F;" d="M138.803,168.936l-16.36,5.818c-2.332,0.829-3.436,3.494-2.373,5.729l7.454,15.682
	c1.688,3.55-2.016,7.254-5.566,5.566l-15.682-7.454c-2.236-1.063-4.9,0.041-5.729,2.373l-5.818,16.36
	c-1.317,3.704-6.555,3.704-7.872,0l-5.818-16.36c-0.829-2.332-3.494-3.436-5.729-2.373l-15.682,7.454
	c-3.55,1.688-7.254-2.016-5.566-5.566l7.454-15.682c1.063-2.236-0.041-4.9-2.373-5.729l-16.36-5.818
	c-3.704-1.317-3.704-6.555,0-7.872l16.36-5.818c2.332-0.829,3.436-3.494,2.373-5.729l-7.454-15.682
	c-1.688-3.55,2.016-7.254,5.566-5.566l15.682,7.454c2.236,1.063,4.9-0.041,5.729-2.373l5.818-16.36c1.317-3.704,6.555-3.704,7.872,0
	l5.818,16.36c0.829,2.332,3.494,3.436,5.729,2.373l15.682-7.454c3.55-1.688,7.254,2.016,5.566,5.566l-7.454,15.682
	c-1.063,2.236,0.041,4.9,2.373,5.729l16.36,5.818C142.507,162.381,142.507,167.619,138.803,168.936z M265.003,172.5h-89.999
	c-2.761,0-5,2.239-5,5v10c0,2.761,2.239,5,5,5h89.999c2.761,0,5-2.239,5-5v-10C270.003,174.739,267.765,172.5,265.003,172.5z
	 M335.002,137.5H175.005c-2.761,0-5,2.239-5,5v10c0,2.761,2.239,5,5,5h159.998c2.761,0,5-2.239,5-5v-10
	C340.002,139.739,337.764,137.5,335.002,137.5z"/>
<path style="fill:#FFAF82;" d="M252.555,290v100c0,11.046-8.954,20-19.999,20v90c0,3.914-1.141,7.554-3.085,10.637
	c-43.026-4.431-82.891-19.517-116.914-42.577v-58.643L4.687,341.614c-4.676-2.939-6.084-9.112-3.145-13.788
	c8.817-14.028,27.336-18.252,41.363-9.435L92.557,349.6V200c0-11.046,8.954-20,20-20s20,8.954,20,20v69.995
	c0.003-11.043,8.956-19.995,20-19.995c11.046,0,20,8.954,20,20v10c0-11.046,8.954-20,20-20s20,8.954,20,20v10
	c0-11.046,8.954-20,20-20S252.555,278.954,252.555,290z"/>
<path style="fill:#FF9B69;" d="M162.556,285c0,2.761-2.239,5-5,5h-8v40c0,4.694-3.806,8.5-8.5,8.5s-8.5-3.806-8.5-8.5v-59.518
	c0-10.391,7.735-19.394,18.078-20.39c3.756-0.362,7.301,0.354,10.421,1.824c-6.789,3.198-11.5,10.082-11.5,18.084v10h8
	C160.318,280,162.556,282.239,162.556,285z M237.555,280h-5.303c2.039-3.508,5.109-6.344,8.802-8.084
	c-3.12-1.469-6.665-2.185-10.421-1.824c-10.343,0.995-18.078,9.998-18.078,20.39V331.5c0,4.694,3.806,8.5,8.5,8.5s8.5-3.806,8.5-8.5
	V290h8c2.761,0,5-2.239,5-5S240.317,280,237.555,280z M197.556,280h-8c0-8.002,4.711-14.886,11.5-18.084
	c-3.12-1.469-6.665-2.185-10.421-1.824c-10.343,0.995-18.078,9.998-18.078,20.39V331.5c0,4.694,3.806,8.5,8.5,8.5s8.5-3.806,8.5-8.5
	V290h8c2.761,0,5-2.239,5-5S200.317,280,197.556,280z M6.453,321.871c-1.858,1.739-3.527,3.743-4.941,6.003
	c-2.917,4.661-1.481,10.814,3.175,13.74l107.871,67.803V440h13.531v-35.133c0-3.427-1.755-6.616-4.65-8.449L10.09,325.917
	C8.464,324.894,7.243,323.477,6.453,321.871z M109.557,290h7.785c2.611,0,4.943-1.909,5.191-4.509
	c0.284-2.982-2.053-5.491-4.976-5.491h-8v-10h7.785c2.611,0,4.943-1.909,5.191-4.509c0.284-2.982-2.053-5.491-4.976-5.491h-8v-60
	c0-8.002,4.711-14.886,11.5-18.084c-3.12-1.469-6.665-2.185-10.421-1.824c-10.343,0.995-18.078,9.998-18.078,20.39V349.6
	l1.678,1.055c6.659,4.186,15.321-0.601,15.321-8.466V290z"/>
<path style="fill:#5F82C3;" d="M247.556,440v71.846c-56.555-1.835-108.473-22.001-149.998-54.767V440c0-5.523,4.477-10,10-10
	h129.998C243.078,430,247.556,434.477,247.556,440z"/>
<path style="fill:#506EA0;" d="M129.224,478.432c-11.101-6.34-21.686-13.478-31.666-21.353V440c0-5.523,4.477-10,10-10h31.666
	c-5.523,0-10,4.477-10,10V478.432z"/>
<path style="fill:#91B9FF;" d="M146.002,460.997c0,8.284-6.716,15-15,15s-15-6.716-15-15s6.716-15,15-15
	S146.002,452.713,146.002,460.997z"/>
<path style="fill:#FFE1C3;" d="M119.567,214h-14.019c-2.756,0-4.99-2.234-4.99-4.99v-7.033c0-6.614,5.362-11.976,11.976-11.976
	h0.047c6.614,0,11.976,5.362,11.976,11.976v7.033C124.557,211.766,122.323,214,119.567,214z M4.687,341.614l17.819,11.2
	l6.488-10.404c1.461-2.343,0.746-5.427-1.597-6.888l-5.94-3.704c-5.624-3.507-13.025-1.791-16.532,3.833l0,0
	c-0.946,1.517-1.499,3.163-1.711,4.827C3.662,340.893,4.15,341.277,4.687,341.614z"/>
<g>
</g>
<g>
</g>
<g>
</g>
<g>
</g>
<g>
</g>
<g>
</g>
<g>
</g>
<g>
</g>
<g>
</g>
<g>
</g>
<g>
</g>
<g>
</g>
<g>
</g>
<g>
</g>
<g>
</g>
</svg>
